<?xml version="1.0" encoding="utf-8"?>
<!-- Generator: Adobe Illustrator 15.0.2, SVG Export Plug-In . SVG Version: 6.00 Build 0)  -->
<!DOCTYPE svg PUBLIC "-//W3C//DTD SVG 1.1//EN" "http://www.w3.org/Graphics/SVG/1.1/DTD/svg11.dtd">
<svg version="1.1" xmlns="http://www.w3.org/2000/svg" xmlns:xlink="http://www.w3.org/1999/xlink" x="0px" y="0px"
	 width="283.46px" height="283.459px" viewBox="0 0 283.46 283.459" enable-background="new 0 0 283.46 283.459"
	 xml:space="preserve">
<g id="Layer_1">
	<g>
		<path fill="#D77E34" d="M156.878,118.567c0,2.58-1.479,4.059-4.06,4.059c-2.555,0-4.021-1.479-4.021-4.059v-17.82h-5.988v17.744
			c0,2.805,0.992,5.365,2.802,7.215c1.843,1.801,4.401,2.795,7.207,2.795c2.83,0,5.402-0.994,7.253-2.803
			c1.802-1.842,2.794-4.402,2.794-7.207v-17.744h-5.987V118.567z"/>
		<path fill="#D77E34" d="M174.329,120.386h2.682c5.384,0,9.933-4.652,9.933-10.16c0-5.676-4.529-10.123-10.312-10.123
			c-5.762,0-10.274,4.447-10.274,10.123v17.82h5.988v-7.66v-5.57v-4.477c0-2.488,1.923-4.514,4.286-4.514
			c2.384,0,4.324,2.025,4.324,4.514c0,2.469-1.94,4.477-4.324,4.477h-2.303V120.386z"/>
	</g>
	<g>
		<path fill="#127683" d="M152.818,131.37c-2.821,0-5.382,1.006-7.211,2.836c-1.805,1.805-2.798,4.352-2.798,7.172v17.935h5.988
			v-18.048c0-2.518,1.503-4.02,4.021-4.02c2.58,0,4.06,1.465,4.06,4.02v18.048h5.987v-17.935c0-2.82-0.993-5.367-2.798-7.172
			C158.238,132.376,155.664,131.37,152.818,131.37z"/>
		<path fill="#127683" d="M180.426,138.61c0,2.555-1.466,4.021-4.021,4.021s-4.021-1.467-4.021-4.021v-6.596h-5.987v6.785
			c0,2.904,0.923,5.134,2.746,6.638c-1.823,1.504-2.746,3.732-2.746,6.635v7.24h5.987v-7.012c0-2.557,1.466-4.021,4.021-4.021
			s4.021,1.465,4.021,4.021v7.012h5.987v-7.24c0-2.895-0.913-5.123-2.717-6.635c1.804-1.512,2.717-3.741,2.717-6.638v-6.785h-5.987
			V138.61z"/>
	</g>
	<path fill="#127683" d="M130.688,159.291H87.774c-4.323,0-7.84-3.517-7.84-7.84v-42.915c0-4.322,3.517-7.838,7.84-7.838h42.914
		c4.322,0,7.838,3.516,7.838,7.838v42.915C138.526,155.774,135.011,159.291,130.688,159.291z M87.774,102.698
		c-3.22,0-5.84,2.619-5.84,5.838v42.915c0,3.22,2.62,5.84,5.84,5.84h42.914c3.219,0,5.838-2.62,5.838-5.84v-42.915
		c0-3.219-2.619-5.838-5.838-5.838H87.774z"/>
	<g>
		<path fill="#127683" d="M90.991,146.218l17.12-17.118c1.364-1.365,1.364-3.58,0-4.947l-17.12-17.117
			c-0.688-0.691-1.596-1.03-2.497-1.023c-0.016,0-0.032-0.004-0.046-0.004c-1.911,0-3.458,1.55-3.458,3.458
			c0,0.025,0.004,0.044,0.004,0.067H84.99v34.326l0,0c0.055,0.888,0.453,1.776,1.054,2.358l0,0
			C87.409,147.586,89.624,147.586,90.991,146.218z"/>
	</g>
	<g>
		<path fill="#D77E34" d="M132.326,148.306l-17.119-17.121c-1.364-1.364-3.58-1.364-4.946,0l-17.117,17.121
			c-0.691,0.689-1.03,1.596-1.024,2.498c0,0.014-0.004,0.031-0.004,0.045c0,1.911,1.55,3.458,3.459,3.458
			c0.024,0,0.045-0.004,0.067-0.004v0.004h34.325l0,0c0.889-0.055,1.777-0.452,2.359-1.054l0,0
			C133.693,151.888,133.693,149.673,132.326,148.306z"/>
	</g>
	<polygon fill="#127683" points="188.427,132.015 188.427,137.662 195.479,137.662 195.479,159.312 201.468,159.312 
		201.468,137.662 208.521,137.662 208.521,132.015 	"/>
	<g>
		<path fill="#127683" d="M81.409,165.654v7.307c0,1.509,0.747,2.605,2.177,2.605c1.429,0,2.191-1.096,2.191-2.605v-7.307h1.493
			v7.466c0,2.16-1.604,3.844-3.685,3.844c-2.081,0-3.67-1.684-3.67-3.844v-7.466H81.409z"/>
		<path fill="#127683" d="M88.731,176.773v-4.448c0-2.001,1.397-3.335,3.256-3.335s3.257,1.334,3.257,3.335v4.448h-1.398v-4.448
			c0-1.175-0.857-2.001-1.858-2.001c-1,0-1.858,0.826-1.858,2.001v4.448H88.731z"/>
		<path fill="#127683" d="M98.166,166.607c0.54,0,0.842,0.413,0.842,0.842c0,0.429-0.302,0.842-0.842,0.842
			s-0.842-0.413-0.842-0.842C97.324,167.02,97.626,166.607,98.166,166.607z M97.467,176.773v-7.625h1.398v7.625H97.467z"/>
		<path fill="#127683" d="M101.2,176.773v-8.339c0-1.731,1.128-2.78,2.7-2.78h1.176v1.334h-0.985c-0.921,0-1.493,0.445-1.493,1.414
			v0.747h2.287v1.334h-2.287v6.29H101.2z M106.633,166.607c0.54,0,0.842,0.413,0.842,0.842c0,0.429-0.302,0.842-0.842,0.842
			s-0.842-0.413-0.842-0.842C105.791,167.02,106.093,166.607,106.633,166.607z M105.934,176.773v-7.625h1.397v7.625H105.934z"/>
		<path fill="#127683" d="M111.286,174.263l-0.572-1.112l3.765-2.097c-0.477-0.477-0.874-0.731-1.731-0.731
			c-1.445,0-2.494,1.08-2.494,2.637c0,1.557,1.049,2.637,2.494,2.637c1.652,0,2.271-0.985,2.558-2.383l1.414,0.175
			c-0.159,2.017-1.779,3.542-3.972,3.542c-2.112,0-3.955-1.62-3.955-3.971c0-2.351,1.843-3.971,3.955-3.971
			c1.779,0,2.971,0.937,3.686,2.414L111.286,174.263z"/>
		<path fill="#127683" d="M125.343,165.654v7.084c0,2.51-1.604,4.193-3.844,4.193c-2.479,0-3.939-1.906-3.939-4.162
			c0-2.128,1.716-3.78,3.669-3.78c0.763,0,1.493,0.159,2.16,0.54v1.461c-0.508-0.35-1.286-0.667-1.922-0.667
			c-1.509,0-2.51,1.048-2.51,2.621c0,1.557,1.049,2.653,2.542,2.653c1.334,0,2.446-1.017,2.446-3.113v-6.831H125.343z"/>
		<path fill="#127683" d="M126.613,176.773v-7.434c0-2.398,1.651-3.875,3.558-3.875c2.256,0,3.669,1.684,3.669,3.574
			c0,1.954-1.365,3.542-3.129,3.542h-2.018v-1.398h1.589c1.176,0,2.065-0.81,2.065-2.145c0-1.35-0.938-2.176-2.161-2.176
			c-1.191,0-2.08,0.874-2.08,2.287v7.625H126.613z"/>
		<path fill="#127683" d="M138.335,168.99c2.112,0,3.955,1.62,3.955,3.971c0,2.351-1.843,3.971-3.955,3.971s-3.955-1.62-3.955-3.971
			C134.38,170.61,136.223,168.99,138.335,168.99z M138.335,175.598c1.445,0,2.494-1.08,2.494-2.637c0-1.557-1.049-2.637-2.494-2.637
			s-2.494,1.08-2.494,2.637C135.841,174.518,136.89,175.598,138.335,175.598z"/>
		<path fill="#127683" d="M143.194,175.438h3.908c0.651,0,0.905-0.254,0.905-0.73c0-1.398-4.813-0.858-4.813-3.495
			c0-1.35,0.938-2.065,2.605-2.065h3.288v1.334h-3.526c-0.683,0-0.89,0.19-0.905,0.667c-0.016,1.318,4.812,0.762,4.812,3.495
			c0,1.445-1.017,2.128-2.366,2.128h-3.908V175.438z"/>
		<path fill="#127683" d="M154.869,170.483h-2.732v4.002c0,0.715,0.334,0.953,1.049,0.953h1.684v1.334h-1.875
			c-1.43,0-2.255-0.953-2.255-2.462v-7.069h1.397v1.906h2.732V170.483z"/>
		<path fill="#127683" d="M169.274,168.545c-1.223-1.017-2.033-1.684-3.59-1.684c-2.462,0-4.257,1.985-4.257,4.352
			s1.795,4.353,4.257,4.353c2.113,0,3.972-1.382,4.083-3.654h-3.876v-1.397h5.433v0.953c0,3.605-2.986,5.496-5.64,5.496
			c-3.145,0-5.813-2.542-5.813-5.75s2.669-5.75,5.813-5.75c1.858,0,3.113,0.524,4.591,2.001L169.274,168.545z"/>
		<path fill="#127683" d="M172.562,169.148h1.334v0.874h0.032c0.476-0.747,1.127-1.032,2.064-1.032h0.317v1.334h-0.206
			c-1.351,0-2.145,0.826-2.145,2.891v3.558h-1.397V169.148z"/>
		<path fill="#127683" d="M180.694,168.99c2.112,0,3.955,1.62,3.955,3.971c0,2.351-1.843,3.971-3.955,3.971s-3.955-1.62-3.955-3.971
			C176.739,170.61,178.582,168.99,180.694,168.99z M180.694,175.598c1.445,0,2.494-1.08,2.494-2.637
			c0-1.557-1.049-2.637-2.494-2.637s-2.494,1.08-2.494,2.637C178.2,174.518,179.249,175.598,180.694,175.598z"/>
		<path fill="#127683" d="M192.337,169.148v4.448c0,2.001-1.398,3.335-3.257,3.335s-3.256-1.334-3.256-3.335v-4.448h1.397v4.448
			c0,1.175,0.858,2.001,1.858,2.001c1.001,0,1.858-0.826,1.858-2.001v-4.448H192.337z"/>
		<path fill="#127683" d="M193.687,180.204v-7.021c0-2.51,1.604-4.193,3.844-4.193c2.478,0,3.939,1.906,3.939,4.162
			c0,2.128-1.716,3.78-3.67,3.78c-0.762,0-1.493-0.159-2.16-0.54v-1.461c0.509,0.35,1.287,0.667,1.922,0.667
			c1.51,0,2.51-1.048,2.51-2.621c0-1.557-1.048-2.653-2.541-2.653c-1.334,0-2.446,1.017-2.446,3.113v6.767H193.687z"/>
	</g>
</g>
<g id="Layer_2">
</g>
</svg>
